<?xml version="1.0" encoding="utf-8"?>
<!-- Generator: Adobe Illustrator 26.2.1, SVG Export Plug-In . SVG Version: 6.00 Build 0)  -->
<svg version="1.1"
	 id="Layer_1" xmlns:cc="http://creativecommons.org/ns#" xmlns:dc="http://purl.org/dc/elements/1.1/" xmlns:rdf="http://www.w3.org/1999/02/22-rdf-syntax-ns#"
	 xmlns="http://www.w3.org/2000/svg" xmlns:xlink="http://www.w3.org/1999/xlink" x="0px" y="0px" viewBox="0 0 1000 1000"
	 style="enable-background:new 0 0 1000 1000;" xml:space="preserve">
<style type="text/css">
	.st0{fill:#E8E894;}
	.st1{fill:#C04A81;}
	.st2{clip-path:url(#SVGID_00000123436668075337010480000003158667136629585058_);fill:#DB98B7;}
</style>
<g>
	<path class="st0" d="M418.6,731.9C524,956.1,293.1,1250.5,601.4,1369c117.9,45.3,430.9,212,693.5-7.2
		c99.6-83.2,164-167.2,46.5-272.8c-222.3-199.8-399.5-13.7-492.6-86.7C769,939.6,747.5,727.8,764.3,589"/>
	<path class="st0" d="M155.7,654.7c-81.1-92.2-76.5-129,74.3-134.3c67.2-2.4-50.6-168.5,122.9-325.7l414.3,37.1l11.4,348.6
		c-55.1,109.3-7.5,71.6-162.7,124.1C397,778.7,237.6,747.7,155.7,654.7L155.7,654.7z"/>
	<path class="st0" d="M295.7,351.9C192.9,206.5,126.9,27.4,141.4,14.7C155.9,2,275.4,103.8,404.3,260.4L295.7,351.9z"/>
</g>
<path class="st1" d="M141.4,360.4C297.1,278,473.2,237.9,589.9,275c146,46.5,199.1,144.5,185.8,282.5
	c-8.1,84.4-79.9,288.1-269.1,148.5c-19.4,46.1-15.8,96.6-15.9,142.9c82.8,15.2,144.4-18.1,144.4-18.1s-50.1,77-142.2,67.4
	c22.3,83.1,94.1,277.3,124.4,309.7c126.8-20.1,194.9-68.1,262.3-195.4c6.8-12.9-105.3-35.2-106.9-226.5
	c-1.6-191.6,74.4-419.7-25.7-571.4c-79.4-120.4-213.1-129.3-386-105.6C230.1,127.1,151.2,194.4,141.4,360.4L141.4,360.4z"/>
<path d="M264.3,429c79.9-91.4,147.8-36.3,154.3,65C373.5,437.5,368,374.4,264.3,429z"/>
<path class="st0" d="M592.9,286.1C616.7,168.5,690,55,730,63.3c40,8.3,155.2,325.4,31.4,400"/>
<g>
	<defs>
		<path id="SVGID_1_" d="M141.4,360.4C297.1,278,473.2,237.9,589.9,275c146,46.5,199.1,144.5,185.8,282.5
			c-8.1,84.4-79.9,288.1-269.1,148.5c-19.4,46.1-15.8,96.6-15.9,142.9c82.8,15.2,144.4-18.1,144.4-18.1s-50.1,77-142.2,67.4
			c22.3,83.1,94.1,277.3,124.4,309.7c126.8-20.1,194.9-68.1,262.3-195.4c6.8-12.9-105.3-35.2-106.9-226.5
			c-1.6-191.6,74.4-419.7-25.7-571.4c-79.4-120.4-213.1-129.3-386-105.6C230.1,127.1,151.2,194.4,141.4,360.4L141.4,360.4z"/>
	</defs>
	<clipPath id="SVGID_00000126281019371128025870000011130270177146856854_">
		<use xlink:href="#SVGID_1_"  style="overflow:visible;"/>
	</clipPath>
	<path style="clip-path:url(#SVGID_00000126281019371128025870000011130270177146856854_);fill:#DB98B7;" d="M744.3,86.1
		C549.6-0.1,233.8,198.1,240,340.4l195.7-5.7C352.5,214.9,512.8,47.2,712.9,80.4L744.3,86.1z M867.1,820.4
		C807.7,943.5,741.4,986.2,430,977.6l88.6,114.3c137.8-5.8,314.5,26,371.4-237.2C890,854.7,883.5,826.5,867.1,820.4L867.1,820.4z"/>
</g>
<g>
	<path d="M402.9,456.9c23.4,18.5,51.5,25.8,78.6,33.6c-27.5-2.7-52.8-1.1-78.6-17.9C402.7,467.3,401.4,453.6,402.9,456.9z"/>
	<path d="M397.1,461.1c14.7,35.1,26.7,41.7,64.3,53.6c-30-19.4-39.8-30-50-49.3L397.1,461.1z"/>
	<path d="M397.1,441.9c28.8,27.8,53.1,26.7,79.3,30.7c-23.1,3-47.6,4.3-73.6-8.6"/>
</g>
</svg>
