<?xml version="1.0" encoding="utf-8"?>
<!-- Generator: Adobe Illustrator 26.2.1, SVG Export Plug-In . SVG Version: 6.00 Build 0)  -->
<svg version="1.1" id="Layer_1" xmlns="http://www.w3.org/2000/svg" xmlns:xlink="http://www.w3.org/1999/xlink" x="0px" y="0px"
	 viewBox="0 0 600 600" style="enable-background:new 0 0 600 600;" xml:space="preserve">
<style type="text/css">
	.st0{fill:url(#SVGID_1_);}
	
		.st1{clip-path:url(#SVGID_00000129888915442339335500000013760344405968085400_);fill:url(#a_00000109023323453341189510000014034257158975420580_);}
	.st2{clip-path:url(#SVGID_00000102505876036635655800000012294835307279303854_);}
	.st3{clip-path:url(#SVGID_00000007392687973304044000000001200976495358787203_);fill:#FFFFFF;}
	.st4{clip-path:url(#SVGID_00000143601275038847356550000004854547764708139149_);}
	.st5{clip-path:url(#SVGID_00000070077315539186786300000016281511447872333193_);fill:#FFFFFF;}
	.st6{clip-path:url(#SVGID_00000096019650891848073420000006619424376395661709_);}
	.st7{clip-path:url(#SVGID_00000130605890014052024930000009209694342791547306_);fill:#FFFFFF;}
	.st8{fill:#C8CFE2;}
	.st9{fill:none;stroke:#8D99B6;stroke-width:10.867;}
	.st10{fill:#C6399A;}
	.st11{fill:#FF7C19;}
	.st12{fill:#C8CFE2;stroke:#8D99B6;stroke-width:10.867;}
	.st13{fill:none;stroke:#8D99B6;stroke-width:10.866;}
	.st14{fill:#FFFFFF;}
	.st15{fill:url(#SVGID_00000019658758318979215520000009144668855539380895_);}
	.st16{fill:url(#SVGID_00000112633128641344972190000003438071039793120911_);}
	.st17{fill:url(#SVGID_00000037683165481514470260000008434564266106955160_);}
	.st18{fill:#FDF79F;}
	.st19{fill:#EDD953;}
	.st20{fill:#8D99B6;}
</style>
<linearGradient id="SVGID_1_" gradientUnits="userSpaceOnUse" x1="0" y1="300" x2="600" y2="300">
	<stop  offset="0" style="stop-color:#FFF6AD"/>
	<stop  offset="0.5" style="stop-color:#FFED00"/>
	<stop  offset="1" style="stop-color:#FFD800"/>
</linearGradient>
<circle class="st0" cx="300" cy="300" r="300"/>
<g id="derp">
	<g>
		<defs>
			<path id="SVGID_00000163058761415154796640000003757460423485911697_" d="M-1780.2-116.2l82.8,54.3c3.9,83.9,0,162.9-29.7,235.1
				C-1826.2,174.6-1815.6-72-1780.2-116.2L-1780.2-116.2z"/>
		</defs>
		<clipPath id="SVGID_00000163788348789003248350000008072157464227491725_">
			<use xlink:href="#SVGID_00000163058761415154796640000003757460423485911697_"  style="overflow:visible;"/>
		</clipPath>
		
			<linearGradient id="a_00000150095753981029914380000015745895051702614917_" gradientUnits="userSpaceOnUse" x1="4611.1758" y1="-447.4321" x2="4605.2026" y2="-878.1071" gradientTransform="matrix(0.2268 2.793845e-04 2.266403e-02 -0.2636 4164.8306 -1256.4227)">
			<stop  offset="0" style="stop-color:#9A9C1D"/>
			<stop  offset="0.432" style="stop-color:#F8FE33"/>
			<stop  offset="1" style="stop-color:#F7FE8E"/>
		</linearGradient>
		
			<path id="a" style="clip-path:url(#SVGID_00000163788348789003248350000008072157464227491725_);fill:url(#a_00000150095753981029914380000015745895051702614917_);" d="
			M5238.1-1095c2.1,44.4-15.2,84.1-38.7,88.7c-23.5,4.6-44.2-27.7-46.3-72.1c-2.1-44.4,15.2-84.1,38.7-88.7
			C5215.3-1171.6,5236-1139.4,5238.1-1095L5238.1-1095z"/>
	</g>
	<g>
		<defs>
			<path id="SVGID_00000147913479811890968690000005598527250090246819_" d="M9837.2,2413.9L9652,2535.5
				c-8.8,187.8-0.1,364.5,66.4,525.8C9940.2,3064.3,9916.5,2512.8,9837.2,2413.9L9837.2,2413.9z"/>
		</defs>
		<defs>
			<path id="SVGID_00000145736550699566688550000007193536975419544477_" d="M-5862.8,224.3c-4.7,99.3,34,188.1,86.5,198.3
				c52.5,10.3,98.8-61.9,103.5-161.2c4.7-99.3-34-188.1-86.5-198.3C-5811.7,52.8-5858.1,125-5862.8,224.3L-5862.8,224.3z"/>
		</defs>
		<clipPath id="SVGID_00000164494069988623295740000015582833948192052638_">
			<use xlink:href="#SVGID_00000147913479811890968690000005598527250090246819_"  style="overflow:visible;"/>
		</clipPath>
		
			<clipPath id="SVGID_00000175319797990862291540000015940589847628323739_" style="clip-path:url(#SVGID_00000164494069988623295740000015582833948192052638_);">
			<use xlink:href="#SVGID_00000145736550699566688550000007193536975419544477_"  style="overflow:visible;"/>
		</clipPath>
		<path style="clip-path:url(#SVGID_00000175319797990862291540000015940589847628323739_);fill:#FFFFFF;" d="M5180-1058l-22,22.6
			l-8.8-21.2l27.5-8.9L5180-1058z"/>
	</g>
	<g>
		<defs>
			<path id="SVGID_00000056413254229003132320000011172614184230911915_" d="M9837.2,2413.9L9652,2535.5
				c-8.8,187.8-0.1,364.5,66.4,525.8C9940.2,3064.3,9916.5,2512.8,9837.2,2413.9L9837.2,2413.9z"/>
		</defs>
		<defs>
			<path id="SVGID_00000065073603853513099130000010202346844475612605_" d="M-5862.8,224.3c-4.7,99.3,34,188.1,86.5,198.3
				c52.5,10.3,98.8-61.9,103.5-161.2c4.7-99.3-34-188.1-86.5-198.3C-5811.7,52.8-5858.1,125-5862.8,224.3L-5862.8,224.3z"/>
		</defs>
		<clipPath id="SVGID_00000053532046515234839790000011863343220739963045_">
			<use xlink:href="#SVGID_00000056413254229003132320000011172614184230911915_"  style="overflow:visible;"/>
		</clipPath>
		
			<clipPath id="SVGID_00000052063812269542747280000007123217082187739524_" style="clip-path:url(#SVGID_00000053532046515234839790000011863343220739963045_);">
			<use xlink:href="#SVGID_00000065073603853513099130000010202346844475612605_"  style="overflow:visible;"/>
		</clipPath>
		<path style="clip-path:url(#SVGID_00000052063812269542747280000007123217082187739524_);fill:#FFFFFF;" d="M5178.3-1066.6
			l-25.4,13l-3.6-21.4l30.5,1.3L5178.3-1066.6z"/>
	</g>
	<g>
		<defs>
			<path id="SVGID_00000039856438494696747340000011290671259878994877_" d="M-1780.2-116.1l82.8,54.3c3.9,83.9,0,162.9-29.7,235.1
				C-1826.2,174.7-1815.6-71.9-1780.2-116.1L-1780.2-116.1z"/>
		</defs>
		<clipPath id="SVGID_00000169555314493288199840000014308022105170686631_">
			<use xlink:href="#SVGID_00000039856438494696747340000011290671259878994877_"  style="overflow:visible;"/>
		</clipPath>
		<path style="clip-path:url(#SVGID_00000169555314493288199840000014308022105170686631_);" d="M5225.3-1085
			c1.7,35-11.6,65.1-29.9,67.2c-18.2,2.1-34.4-24.5-36.2-59.5c-1.7-35,11.6-65.1,29.9-67.2C5207.4-1146.7,5223.6-1120,5225.3-1085
			L5225.3-1085z"/>
	</g>
	<g>
		<defs>
			<path id="SVGID_00000000907178875705541860000014355129118054526088_" d="M-1780.2-116.1l82.8,54.3c3.9,83.9,0,162.9-29.7,235.1
				C-1826.2,174.7-1815.6-71.9-1780.2-116.1L-1780.2-116.1z"/>
		</defs>
		<clipPath id="SVGID_00000139979542654870724900000003912416509812199354_">
			<use xlink:href="#SVGID_00000000907178875705541860000014355129118054526088_"  style="overflow:visible;"/>
		</clipPath>
		<path style="clip-path:url(#SVGID_00000139979542654870724900000003912416509812199354_);fill:#FFFFFF;" d="M5202.8-1127.1
			c8.4,10.9,10,25.4,3.6,32.4c-6.4,6.9-18.4,3.7-26.8-7.2c-8.4-10.9-10-25.4-3.7-32.4C5182.4-1141.3,5194.4-1138.1,5202.8-1127.1
			L5202.8-1127.1z"/>
	</g>
	<path class="st8" d="M186,577.5c-0.6-0.3-1.3-0.5-1.9-0.8C184.7,577,185.3,577.3,186,577.5z"/>
	<path class="st8" d="M179.7,574.9c-0.7-0.3-1.4-0.6-2.1-0.9C178.3,574.3,179,574.6,179.7,574.9z"/>
	<path class="st8" d="M259.7,597.3c-1.3-0.2-2.6-0.4-3.9-0.5C257.1,596.9,258.4,597.1,259.7,597.3z"/>
	<path class="st8" d="M173.4,572c-0.7-0.3-1.4-0.6-2.1-1C172,571.4,172.7,571.7,173.4,572z"/>
	<path class="st8" d="M267,598.2c-1.3-0.1-2.7-0.3-4-0.5C264.4,597.9,265.7,598,267,598.2z"/>
	<path class="st8" d="M167.2,569c-0.7-0.3-1.4-0.7-2-1C165.8,568.4,166.5,568.7,167.2,569z"/>
	<path class="st8" d="M160.9,565.9c-0.7-0.3-1.3-0.7-2-1C159.6,565.2,160.3,565.5,160.9,565.9z"/>
	<path class="st8" d="M231,592c-1.1-0.3-2.3-0.6-3.4-0.8C228.7,591.5,229.9,591.7,231,592z"/>
	<path class="st8" d="M224,590.3c-1.1-0.3-2.2-0.6-3.3-0.9C221.8,589.7,222.9,590,224,590.3z"/>
	<path class="st8" d="M238.1,593.6c-1.2-0.2-2.4-0.5-3.5-0.8C235.7,593.1,236.9,593.3,238.1,593.6z"/>
	<path class="st8" d="M154.8,562.6c-0.6-0.3-1.2-0.7-1.9-1C153.6,561.9,154.2,562.2,154.8,562.6z"/>
	<path class="st8" d="M210.2,586.3c-0.8-0.3-1.6-0.5-2.4-0.8C208.6,585.8,209.4,586.1,210.2,586.3z"/>
	<path class="st8" d="M217.1,588.4c-1-0.3-2-0.6-3-0.9C215.1,587.8,216.1,588.1,217.1,588.4z"/>
	<path class="st8" d="M252.4,596.2c-1.3-0.2-2.5-0.4-3.7-0.6C249.9,595.8,251.2,596,252.4,596.2z"/>
	<path class="st8" d="M245.2,595c-1.2-0.2-2.4-0.5-3.6-0.7C242.8,594.5,244,594.8,245.2,595z"/>
	<path class="st8" d="M191.7,579.8c-0.4-0.1-0.8-0.3-1.1-0.4C191,579.6,191.3,579.7,191.7,579.8z"/>
	<polygon class="st8" points="99.3,523 99.3,523 99.3,523 	"/>
	<path class="st8" d="M131.1,548c-0.2-0.1-0.4-0.3-0.6-0.4C130.7,547.7,130.9,547.8,131.1,548z"/>
	<path class="st8" d="M282.1,599.5c-1.5-0.1-2.9-0.2-4.4-0.3C279.1,599.3,280.6,599.4,282.1,599.5z"/>
	<path class="st8" d="M319.8,599.3c-0.7,0-1.3,0.1-2,0.1C318.4,599.4,319.1,599.4,319.8,599.3z"/>
	<path class="st8" d="M290,599.8c-1.6-0.1-3.3-0.1-4.9-0.2C286.7,599.7,288.4,599.8,290,599.8z"/>
	<path class="st8" d="M313.5,599.7c-1.1,0.1-2.3,0.1-3.4,0.1C311.3,599.8,312.4,599.7,313.5,599.7z"/>
	<path class="st8" d="M136.9,551.8c-0.4-0.3-0.8-0.5-1.2-0.8C136.1,551.3,136.5,551.6,136.9,551.8z"/>
	<path class="st8" d="M148.7,559.1c-0.6-0.3-1.1-0.7-1.7-1C147.6,558.4,148.2,558.8,148.7,559.1z"/>
	<path class="st8" d="M274.5,598.9c-1.4-0.1-2.8-0.2-4.1-0.4C271.7,598.7,273.1,598.8,274.5,598.9z"/>
	<path class="st8" d="M306.9,599.9c-2.3,0.1-4.6,0.1-6.9,0.1C302.3,600,304.6,600,306.9,599.9z"/>
	<path class="st8" d="M142.8,555.5c-0.5-0.3-1-0.6-1.5-0.9C141.8,554.9,142.3,555.2,142.8,555.5z"/>
	<path class="st8" d="M300,600c-2.5,0-5,0-7.5-0.1C295,600,297.5,600,300,600z"/>
	<path class="st8" d="M313.5,599.7c1.4-0.1,2.8-0.1,4.2-0.2c0.7,0,1.3-0.1,2-0.1c1.7-0.1,3.3-0.2,5-0.4c-5-27.6-12.7-53.9-23.5-81.2
		l-69.5-13.1L92,430.2c-0.5,31.2,3.5,62,7.3,92.8c0,0,0,0,0,0c9.8,8.8,20.2,17,31.1,24.5c0.2,0.1,0.4,0.3,0.6,0.4
		c1.5,1,3.1,2.1,4.6,3.1c0.4,0.3,0.8,0.5,1.2,0.8c1.5,0.9,2.9,1.9,4.4,2.8c0.5,0.3,1,0.6,1.5,0.9c1.4,0.9,2.8,1.7,4.3,2.6
		c0.6,0.3,1.1,0.7,1.7,1c1.4,0.8,2.8,1.6,4.2,2.4c0.6,0.3,1.2,0.7,1.9,1c1.4,0.8,2.8,1.5,4.2,2.3c0.7,0.3,1.3,0.7,2,1
		c1.4,0.7,2.8,1.4,4.2,2.1c0.7,0.3,1.4,0.7,2,1c1.4,0.7,2.8,1.4,4.2,2c0.7,0.3,1.4,0.6,2.1,1c1.4,0.7,2.8,1.3,4.2,1.9
		c0.7,0.3,1.4,0.6,2.1,0.9c1.4,0.6,2.9,1.3,4.4,1.9c0.6,0.3,1.3,0.5,1.9,0.8c1.5,0.6,3.1,1.3,4.6,1.9c0.4,0.1,0.8,0.3,1.1,0.4
		c5.3,2,10.7,3.9,16.1,5.7c0.8,0.3,1.6,0.5,2.4,0.8c1.3,0.4,2.6,0.8,3.9,1.2c1,0.3,2,0.6,3,0.9c1.2,0.3,2.4,0.7,3.7,1
		c1.1,0.3,2.2,0.6,3.3,0.9c1.2,0.3,2.4,0.6,3.6,0.9c1.1,0.3,2.3,0.6,3.4,0.8c1.2,0.3,2.4,0.5,3.5,0.8c1.2,0.3,2.4,0.5,3.5,0.8
		c1.2,0.2,2.3,0.5,3.5,0.7c1.2,0.2,2.4,0.5,3.6,0.7c1.1,0.2,2.3,0.4,3.5,0.6c1.2,0.2,2.5,0.4,3.7,0.6c1.1,0.2,2.3,0.4,3.4,0.5
		c1.3,0.2,2.6,0.4,3.9,0.5c1.1,0.2,2.2,0.3,3.4,0.4c1.3,0.2,2.7,0.3,4,0.5c1.1,0.1,2.2,0.2,3.3,0.4c1.4,0.1,2.8,0.3,4.1,0.4
		c1.1,0.1,2.1,0.2,3.2,0.3c1.5,0.1,2.9,0.2,4.4,0.3c1,0.1,2,0.1,3,0.2c1.6,0.1,3.3,0.1,4.9,0.2c0.8,0,1.7,0.1,2.5,0.1
		c2.5,0.1,5,0.1,7.5,0.1c2.3,0,4.6,0,6.9-0.1c1.1,0,2.1-0.1,3.2-0.1C311.3,599.8,312.4,599.7,313.5,599.7z"/>
	<polygon class="st8" points="103.8,527 103.8,527 103.8,527 	"/>
	<polygon class="st8" points="92.2,516.3 92.2,516.3 92.2,516.3 	"/>
	<path class="st8" d="M425,408c17.3-61.7,25.7-199.8-73.2-228.3l-254.7,9.5L54.7,295.3c0,0,29.4,166.6,37.5,221c0,0,0,0,0,0
		c3.8,3.6,7.7,7.2,11.6,10.6c0,0,0,0,0,0l217.1-106.9L425,408z"/>
	<path class="st9" d="M425,408c17.3-61.7,25.7-199.8-73.2-228.3"/>
	<path class="st10" d="M312.2,443.1l38.3,82.3c2.3-25.5,12.6-51.2,41.4-65.7l-27.9-62.1L312.2,443.1z"/>
	<polygon class="st11" points="337.5,463.8 337.5,463.8 337.5,463.8 	"/>
	<path class="st11" d="M337.5,463.8l3.6,53.8C359.6,506.7,354.9,476.7,337.5,463.8z"/>
	<path class="st12" d="M154.2,185.6l164.7-13.2C285.3,140.6,196.1,151.1,154.2,185.6z"/>
	<path class="st13" d="M301.3,517.8c14.3,26.3,19.8,48.7,18.2,81.5"/>
	<polygon class="st12" points="94.3,518.4 94.3,518.4 94.3,518.4 	"/>
	<path class="st12" d="M57.1,292.5c0,0,27.7,162.1,35.4,215c0,0,0,0,0,0c0.7,0.7,1.3,1.3,2,2c0,0,0,0,0,0l2.7-320.2L57.1,292.5z"/>
	<path d="M126.2,285.3L126.2,285.3c10.4,9.4,46.6,14.3,54.8,15.4l2.1-6.2C175.6,292.7,142,283.4,126.2,285.3z"/>
	<path d="M122.8,315.6L122.8,315.6c11.6,8,45.9,5.8,54.1,5.8l0.9-7.5C170.1,313.1,138.2,311.7,122.8,315.6z"/>
	<path d="M137.7,257.1c8.9,10.9,42.8,23.3,50.7,25.7l3-5.8C184.3,274,153.6,257.6,137.7,257.1L137.7,257.1z"/>
	<path d="M221,247.2c-34.7,10.3-51.3,47.2-43.3,77.9l109.6,95.7c38.5-13.5,53.1-57.9,34.3-107.9C303.6,265.1,255.2,237,221,247.2z"
		/>
	<path class="st14" d="M317.6,317.2c-17.1-45.1-61.9-75.5-99.1-62.5c-37.2,13-51.7,58.3-33.6,107c18.1,48.7,62.9,77.7,100,64.7
		C322.1,413.4,336,365.9,317.6,317.2L317.6,317.2z"/>
	
		<linearGradient id="SVGID_00000033355199436014143350000003420163184971428019_" gradientUnits="userSpaceOnUse" x1="235.0978" y1="290.5039" x2="235.0995" y2="290.4949">
		<stop  offset="0" style="stop-color:#9A9C1D"/>
		<stop  offset="0.432" style="stop-color:#F8FE33"/>
		<stop  offset="1" style="stop-color:#F7FE8E"/>
	</linearGradient>
	<path style="fill:url(#SVGID_00000033355199436014143350000003420163184971428019_);" d="M235.1,290.5
		C235.1,290.5,235.1,290.5,235.1,290.5L235.1,290.5C235.1,290.5,235.1,290.5,235.1,290.5z"/>
	
		<linearGradient id="SVGID_00000145018514888291947890000007504773948246044574_" gradientUnits="userSpaceOnUse" x1="228.288" y1="412.9738" x2="255.7756" y2="272.8457">
		<stop  offset="0" style="stop-color:#9A9C1D"/>
		<stop  offset="0.432" style="stop-color:#F8FE33"/>
		<stop  offset="1" style="stop-color:#F7FE8E"/>
	</linearGradient>
	<path style="fill:url(#SVGID_00000145018514888291947890000007504773948246044574_);" d="M246.7,292.2c-3.9-1.2-7.8-1.7-11.6-1.7
		c-25.6-0.3-48.1,23-54.3,57.8c1.1,4.5,2.4,8.9,4.1,13.5c16.8,45.4,56.9,73.7,92.4,66.8c8.2-10.8,14.1-25.1,16.2-41.9
		C299,343.7,278.1,301.5,246.7,292.2z"/>
	<path d="M238,311.8c-3.1-0.9-6.1-1.5-9.1-1.5c-21-0.3-39.3,19.9-43.1,49.2c-0.1,1.2-0.3,2.3-0.4,3.5c13.1,34.2,39.4,58.5,66.8,64.9
		c11.4-8.2,20-23.2,22.5-42.2C279,352,262.6,319,238,311.8z"/>
	<path class="st14" d="M202.5,372.8c-4.7,0.2-7.4,5.2-6.5,11.5c3,4.8,6.3,9.3,9.8,13.4c0.9,0.3,1.8,0.5,2.6,0.5
		c5.1-0.2,7.9-6.1,6.2-13.1S207.6,372.5,202.5,372.8z"/>
	<path class="st14" d="M278.6,320.9c-4.1-19.7-17.8-35.1-30.7-34.5c-12.8,0.7-19.9,17.2-15.8,36.9c4.1,19.7,17.8,35.1,30.7,34.5
		C275.6,357.1,282.7,340.6,278.6,320.9L278.6,320.9z"/>
	<path d="M254,251.1l10.7,4C284,248.4,287,235,288,224C280.8,235.3,273.4,243.1,254,251.1z"/>
	<path d="M256.1,217.7c-5.1,11.9-10.9,20.3-28.2,29.9l10.9,3C256.3,242.2,256.9,228.6,256.1,217.7L256.1,217.7z"/>
	<polygon points="288,224 288,224 288,224 	"/>
	<path class="st14" d="M407.4,259.9c-43.9,47.4-13.7,88.2-16,132l0,0c4.1,1.6,32.1,13.5,32.1,13.5c18.4-57.4,12.4-123.4,1.6-153.2
		L407.4,259.9z"/>
	
		<linearGradient id="SVGID_00000104704147219945611960000005990660232024886198_" gradientUnits="userSpaceOnUse" x1="395.442" y1="385.1423" x2="411.3344" y2="262.4756">
		<stop  offset="0" style="stop-color:#9A9C1D"/>
		<stop  offset="0.432" style="stop-color:#F8FE33"/>
		<stop  offset="1" style="stop-color:#F7FE8E"/>
	</linearGradient>
	<path style="fill:url(#SVGID_00000104704147219945611960000005990660232024886198_);" d="M407.4,259.9
		c-41.4,44.7-16.9,83.6-15.9,124.5c16.3-4,30.1-27.3,33.1-58.8c2.6-26.8-3.4-52.4-14.2-67.1L407.4,259.9z"/>
	<path d="M401.3,267.3c-29.1,37.2-15,70.5-10.9,104.8c13.5-1.8,25.2-20.5,27.8-46.2C420.6,300.4,413.3,276.6,401.3,267.3z"/>
	<path class="st14" d="M407.4,259.9c-6.7,7.3-11.6,14.5-15.2,21.5c1.4,11.8,6.2,21.8,12,24.2c7.3,3,13.5-7,13.9-22.2
		c0.3-9.8-2-19.3-5.5-25.8L407.4,259.9z"/>
	<path d="M387.6,339c-0.9-0.2-1.7-0.1-2-0.1l-2.5-0.1l0,0l0.4,2.4c1.4,8.9,3.1,17.8,4.4,26.6l0.4,2.1l2-0.4
		c5.3-1.1,9.3-6.1,9.6-12.5C400.3,348.7,395.1,340.7,387.6,339z M395.9,356.8c-0.2,3.8-2.1,6.1-4.5,7.5c-1-6.8-2.1-13.5-3.2-20.2
		C392.5,346,396.1,351.1,395.9,356.8z"/>
	<path d="M418.6,248.5c-52.5,17.2-40.3,95.3-24.1,149.1c-7.5-54.6-22.5-118.2,24.6-140.3c9.1-4.3,21.1,4.1,36.4-13.9
		C443.2,252.6,428.4,245.2,418.6,248.5z"/>
	<path d="M455.5,243.4C455.5,243.4,455.5,243.4,455.5,243.4L455.5,243.4C455.5,243.4,455.5,243.4,455.5,243.4z"/>
	<path class="st18" d="M166.2,568.6C166.2,568.6,166.2,568.6,166.2,568.6C166.3,568.6,166.3,568.6,166.2,568.6
		C166.3,568.6,166.3,568.6,166.2,568.6C166.2,568.6,166.2,568.6,166.2,568.6z"/>
	<path class="st18" d="M166.2,568.6C166.3,568.6,166.3,568.6,166.2,568.6L166.2,568.6C166.3,568.6,166.3,568.6,166.2,568.6z"/>
	<path class="st18" d="M57.9,477.1c-0.6-0.8-1.1-1.5-1.7-2.3C56.8,475.6,57.3,476.4,57.9,477.1z"/>
	<path class="st18" d="M54.1,471.8c-0.6-0.8-1.2-1.7-1.7-2.5C52.9,470.2,53.5,471,54.1,471.8z"/>
	<path class="st18" d="M61.5,482c-0.4-0.6-0.9-1.1-1.3-1.7C60.7,480.9,61.1,481.5,61.5,482z"/>
	<path class="st18" d="M43.1,455.1c-1-1.6-2-3.3-2.9-5C41.2,451.8,42.2,453.4,43.1,455.1z"/>
	<path class="st18" d="M38.8,447.7c-0.8-1.4-1.6-2.7-2.3-4.1C37.3,444.9,38.1,446.3,38.8,447.7z"/>
	<path class="st18" d="M50.3,466.4c-0.6-0.9-1.2-1.8-1.8-2.7C49.1,464.5,49.7,465.5,50.3,466.4z"/>
	<path class="st18" d="M46.7,460.8c-0.6-1-1.3-2-1.9-3.1C45.4,458.7,46,459.8,46.7,460.8z"/>
	<path class="st18" d="M72.3,495.3c-0.3-0.4-0.6-0.8-1-1.1C71.6,494.5,71.9,494.9,72.3,495.3z"/>
	<path class="st18" d="M112.3,534c-0.1-0.1-0.3-0.2-0.4-0.3C112,533.8,112.2,533.9,112.3,534z"/>
	<path class="st18" d="M117,537.7c0,0-0.1-0.1-0.1-0.1C117,537.7,117,537.7,117,537.7z"/>
	<path class="st18" d="M76.6,500.2c-0.4-0.4-0.8-0.9-1.2-1.3C75.8,499.3,76.2,499.7,76.6,500.2z"/>
	<path class="st18" d="M166.2,568.6C166.2,568.6,166.2,568.6,166.2,568.6C166.2,568.6,166.2,568.6,166.2,568.6L166.2,568.6z"/>
	<path class="st18" d="M85.2,509.4c-0.3-0.3-0.6-0.6-0.9-0.9C84.6,508.8,84.9,509.1,85.2,509.4z"/>
	<path class="st18" d="M80.9,504.9c-0.4-0.4-0.8-0.8-1.2-1.3C80.2,504.1,80.6,504.5,80.9,504.9z"/>
	<path class="st18" d="M107.4,530c-0.1,0-0.1-0.1-0.2-0.1C107.2,529.9,107.3,529.9,107.4,530z"/>
	<path class="st18" d="M32,435c-0.6-1.2-1.2-2.4-1.8-3.6C30.8,432.6,31.4,433.8,32,435z"/>
	<polygon class="st18" points="20.8,410 20.8,410 20.8,410 	"/>
	<path class="st18" d="M26.1,422.6c-0.6-1.4-1.2-2.7-1.8-4.1C24.9,419.9,25.5,421.2,26.1,422.6z"/>
	<path class="st18" d="M29,428.8c-0.6-1.2-1.2-2.5-1.7-3.7C27.8,426.3,28.4,427.6,29,428.8z"/>
	<path class="st18" d="M23.4,416.3c-0.8-2-1.6-3.9-2.4-5.9C21.8,412.4,22.6,414.3,23.4,416.3z"/>
	<path class="st18" d="M35.2,441.1c-0.6-1.2-1.3-2.4-1.9-3.6C33.9,438.7,34.6,439.9,35.2,441.1z"/>
	<path class="st18" d="M116.5,359.5c-7.8-26-10.3-40.5-19.5-70.9l16.6-136.1C24.1,220.8,15.2,316.3,20.8,410l0,0
		c0.1,0.1,0.1,0.3,0.2,0.4c0.8,2,1.6,4,2.4,5.9c0.3,0.7,0.6,1.5,0.9,2.2c0.6,1.4,1.2,2.7,1.8,4.1c0.4,0.8,0.8,1.7,1.1,2.5
		c0.6,1.2,1.1,2.5,1.7,3.7c0.4,0.9,0.8,1.7,1.2,2.6c0.6,1.2,1.2,2.4,1.8,3.6c0.4,0.9,0.9,1.7,1.3,2.6c0.6,1.2,1.3,2.4,1.9,3.6
		c0.4,0.8,0.9,1.6,1.3,2.4c0.8,1.4,1.5,2.8,2.3,4.1c0.5,0.8,0.9,1.6,1.4,2.4c1,1.7,1.9,3.3,2.9,5c0.5,0.9,1.1,1.8,1.6,2.6
		c0.6,1,1.3,2,1.9,3.1c0.6,1,1.2,1.9,1.9,2.9c0.6,0.9,1.2,1.8,1.8,2.7c0.7,1,1.3,2,2,3c0.6,0.8,1.2,1.7,1.7,2.5c0.7,1,1.4,2,2.2,3
		c0.5,0.8,1.1,1.5,1.7,2.3c0.8,1.1,1.6,2.1,2.3,3.2c0.4,0.6,0.9,1.1,1.3,1.7c3.2,4.1,6.4,8.2,9.8,12.1c0.3,0.4,0.6,0.8,1,1.1
		c1,1.2,2.1,2.4,3.1,3.6c0.4,0.5,0.8,0.9,1.2,1.3c1.1,1.2,2.1,2.3,3.2,3.5c0.4,0.4,0.8,0.8,1.2,1.3c1.1,1.2,2.2,2.4,3.4,3.6
		c0.3,0.3,0.6,0.6,0.9,0.9c7,7.2,14.3,14,22,20.4c0.1,0,0.1,0.1,0.2,0.1c1.5,1.3,3,2.5,4.5,3.7c0.1,0.1,0.3,0.2,0.4,0.3
		c1.5,1.2,3.1,2.5,4.7,3.7c0,0,0.1,0.1,0.1,0.1c9.8,7.6,20.1,14.5,30.8,20.8c1-4.9,1.8-9.8,2.4-14.6c4.9,5.6,9,14.7,16,24.6
		c0,0,0,0,0,0c0,0,0,0,0,0C173.3,526.6,123.3,382.3,116.5,359.5z"/>
	<polygon class="st19" points="169.1,570 169.1,570 169.1,570 	"/>
	<path class="st19" d="M149.5,559.6L149.5,559.6c0,0-0.1,0-0.1-0.1C149.5,559.5,149.5,559.6,149.5,559.6z"/>
	<path class="st19" d="M161.7,566.3c-0.1-0.1-0.2-0.1-0.3-0.2C161.5,566.2,161.6,566.2,161.7,566.3z"/>
	<polygon class="st19" points="144.4,556.5 144.4,556.5 144.4,556.5 	"/>
	<path class="st19" d="M160.3,485.9c-6.7-29.8-50.7-146.3-61.6-197.5l-7.4-1c10.4,48.8,52.9,173.6,58.2,193.2
		c6.6,24.6,12.7,53.1,12.5,83c-4.8-15.2-8.8-22.9-13.5-32c-0.8,7.9-2.2,16.4-4.2,25.1c0,0,0,0,0,0c1.7,1,3.3,2,5,3
		c0,0,0.1,0,0.1,0.1c0.4-2.5,0.8-5,1.2-7.5c1.2,2.8,2.4,6.2,3.5,10.1c2.4,1.3,4.8,2.6,7.2,3.9c0.1,0.1,0.2,0.1,0.3,0.2
		c2.4,1.3,4.9,2.5,7.4,3.7c0,0,0,0,0,0C172.8,528.1,164.4,503.9,160.3,485.9z"/>
	<polygon class="st19" points="17.8,402 17.8,402 17.8,402 	"/>
	<path class="st19" d="M20.4,408.8C20.4,408.8,20.4,408.8,20.4,408.8C20.4,408.8,20.4,408.8,20.4,408.8z"/>
	<path class="st19" d="M23.1,415.6C23.1,415.6,23.1,415.6,23.1,415.6C23.1,415.6,23.1,415.6,23.1,415.6z"/>
	<path class="st19" d="M23.8,352.7c-0.7-70.8,19.6-135.3,92.7-196.8l0.6-12.3h0c-79.5,62.2-103,137.5-102.1,209.2
		c0.2,12.9,1.3,29.8,2.9,49.2c0,0,0,0,0,0c0.8,2.3,1.7,4.5,2.5,6.8c0,0,0,0,0,0c0.9,2.3,1.8,4.5,2.7,6.7c0,0,0,0,0,0
		c1.9,4.5,3.8,8.9,5.9,13.2C26.3,399.3,24,372.5,23.8,352.7z"/>
	<path class="st18" d="M114.2,118.9l67.6,62.4c49.5,71.6,92.9,92.3,157.7,65.7c-32.9-15.8-56.5-24.8-86.3-60.9
		c85.9,14.4,142.3-3.8,237.7,121.1c1-44.5-25.8-92.5-56.4-138c40.1,30.3,83.3,49,108.2,92.8C496.1,73.9,320.4-18.2,114.2,118.9z"/>
	<path class="st19" d="M393.4,65.8L393.4,65.8c-108.2-42.8-206.8-8.7-280.3,48l4.5,6.1C217,47.1,318.1,45.7,391.6,77.8
		c67.1,29.3,111,80.8,142.7,165.5c-25.8-31.6-68.9-61.7-111.4-84c23.6,42.9,55.4,74.4,61.9,132.5c-61.2-80.6-97.4-94.6-241.2-111.2
		c27.1,35.3,44,47.2,85.9,66c-28.3,9.5-54.1,6.3-79.6,0c-30.2-7.4-53.3-53.4-73.2-74.5l3.1,7c12.3,21.3,39,66.2,67.9,74.8
		c28.8,8.6,68.3,6.9,101.1-6.6c-34-16-58.2-26.8-85.8-55.8c97.6,8.1,164.2,32.7,232.7,129.7c3.6-49.1-21.3-101.2-47.5-135.8
		c33.6,22.6,68.8,45.6,103.4,92.2C525.7,156,469.3,95.9,393.4,65.8z"/>
	<path class="st8" d="M124.2,92.6c-81.8,88.1-46,168.8-16.1,223.1l23.2-61.3l53.8-55.6C184.8,156.2,137.9,77.8,124.2,92.6z"/>
	<path class="st20" d="M183.3,169.1c-2-7.8-5.2-17.6-10.5-28.7c-2.2-4.7-5.3-11.2-9.5-18.4c-6.2-10.9-13.5-21.7-20.5-28.7
		c-3.5-3.5-7-6-10.5-7.2c-2.4-0.8-4.8-1-7.1-0.3c-2.3,0.6-3.9,1.9-5,3.1c-13,14-28.8,34.1-39.2,59.2c-10.4,25-12.8,48.3-11.3,69
		c1,13.6,3.6,25,5.4,32.1c3.7,14.2,8.7,26.1,12.8,34.5c4.2,8.5,8.2,15.3,11.1,19.7c6,9.3,9,12.2,9,12.2s-1.1-4.1-5.1-14.2
		c-2-5.1-4.8-11.8-8.2-20.7c-3.2-8.3-7.7-20.4-11.1-33.8c-1.8-6.8-4.1-17.6-4.8-30.5c-1.1-19.4,1.5-41.2,11.6-64.4
		c4.9-11.3,11.1-21.9,18-31.6c6.9-9.7,14-17.9,19.8-24.2c0.1-0.1,0.1-0.1,0.1-0.1c0,0,0,0,0,0c0,0,0,0,0,0c0,0,0-0.2,0.9,0
		c1.4,0.3,3.7,1.5,6.9,4.4c6.4,5.7,13.6,15.3,19.9,25.8c4.1,6.8,7.3,13.1,9.4,17.6c5,10.7,8.7,20,11.3,27.2
		c2.6,7.1,4.3,12.9,5.4,16.8c2.2,7.7,2.9,10.6,3,10.9c0.1-0.2,1.4-3.2,1-11.5C186,182.9,185.3,176.9,183.3,169.1z"/>
	<path class="st20" d="M185.1,198.7L185.1,198.7C185.1,198.7,185.1,198.7,185.1,198.7C185.1,198.7,185.1,198.7,185.1,198.7z"/>
	<path class="st20" d="M128.3,96.1C128.3,96.1,128.3,96.1,128.3,96.1C128.3,96.1,128.3,96.1,128.3,96.1z"/>
	<path class="st20" d="M115,208.5c-0.3-16.5,1.9-32.7,2.7-39.1c1-8.2,1.4-11.6,1.4-11.6v0c0,0-1.7,3-4.2,11
		c-2.2,7.1-5.9,21.7-5.7,39.8c0.3,19.2,4.9,32.6,7.9,39.6c3.2,7.5,5.4,10.1,5.4,10.1s-0.9-3.3-2.7-11
		C118.3,240.4,115.2,226.5,115,208.5z"/>
	<path class="st8" d="M390.6,384.9l-204.1,96.9c26.9,17,85.5,40.7,162.6,44.9c-15.8-41.4-3.2-82.6,15.9-107.9
		c10.2,69.5,72.8,51.3,83.7,3.7C455,394.6,395.3,416.8,390.6,384.9z"/>
	<path class="st20" d="M419.8,436.9L419.8,436.9c-5.2-6.1-6.3-10.7-7.2-18.1C404.8,430.5,409.3,438.7,419.8,436.9z"/>
	<path class="st20" d="M449.4,407.2c-1.3-1.2-2.8-2.1-4.1-2.7c-2-1-4-1.6-5.6-2.1c-4.9-1.3-10.8-1.9-15.2-2.3
		c-9.7-1-15.1-1.5-20.3-3.2c-3.1-1-5.3-2.2-7.1-3.5c-1.7-1.3-3-2.7-3.9-4c-1.9-2.7-2.5-4.5-2.5-4.5s-0.5,1.8,0.1,5.4
		c0.3,1.8,1,4.1,2.6,6.4c1.6,2.4,4,4.9,7.7,7c5.7,3.3,12.7,5,22.2,6.6c4.6,0.8,9.9,1.5,13.7,2.5c1.3,0.3,2.6,0.8,3.7,1.3
		c0.8,0.3,1.4,0.7,1.9,1.1c0.5,0.4,0.8,0.8,1,1.2c0.4,0.7,0.8,2,0.3,4.9c-2.2,10.3-7.2,19.7-14.2,26.8c-7,7.1-15.3,11.3-23.4,12.3
		c-9.1,1.1-17.2-2-23.4-8.5c-6.4-6.5-10.2-15.6-12.4-24.4c-0.6-2.6-1.3-5.7-1.8-9.3c-0.4-2.8-0.7-5.6-0.9-8.5
		c-2,2.2-3.8,4.5-5.6,6.8c-6.7,8.8-16.3,24-21.4,45c-4.7,19.2-4.7,39.6,1.1,59.4c-22.8-1.8-41-5-52.4-7.3
		c-25.1-5-45.3-11.3-57.9-15.5c-12.6-4.2-23.4-8.4-28.8-10.5c-12.3-4.7-16.1-6-16.1-6l0,0c0,0,2.3,3.6,13.7,10.8
		c5.7,3.6,14.8,8.7,28,14.2c13,5.4,32.8,12.3,59,17.5c13,2.6,34.5,6.2,61.6,7.5c2.8,0.1,5.5,0.2,8.3,0.3c-1.2-2.4-2.2-4.8-3.2-7.3
		c-7.9-20-9.2-41.1-4.9-61.4c3.2-14.9,8.8-26.9,14.1-35.4l0.3,1.1c2.3,9.3,6.4,19.9,14,27.9c7.6,8.1,17.9,12.5,29.7,11.5
		c10.3-0.9,20.6-5.9,29.1-14c8.5-8.2,14.7-19,17.6-31.1c1.1-4.5,0.9-8.4-0.7-11.7C452,410,450.7,408.4,449.4,407.2z"/>
</g>
</svg>
